<?xml version="1.0" encoding="utf-8"?>
<!-- Generator: Adobe Illustrator 19.1.0, SVG Export Plug-In . SVG Version: 6.00 Build 0)  -->
<!DOCTYPE svg PUBLIC "-//W3C//DTD SVG 1.1//EN" "http://www.w3.org/Graphics/SVG/1.1/DTD/svg11.dtd">
<svg version="1.1" xmlns="http://www.w3.org/2000/svg" xmlns:xlink="http://www.w3.org/1999/xlink" x="0px" y="0px"
	 viewBox="0 0 1242.6 357" style="enable-background:new 0 0 1242.6 357;" xml:space="preserve">
<style type="text/css">
	.st0{display:none;}
	.st1{display:inline;}
	.st2{fill-rule:evenodd;clip-rule:evenodd;fill:#100F0E;}
	.st3{fill-rule:evenodd;clip-rule:evenodd;fill:#FFFFFF;}
</style>
<g id="Layer_2" class="st0">
	<rect x="-2811.9" y="-769" class="st1" width="6866.4" height="1917.7"/>
	<rect x="4054.5" y="-791.7" class="st1" width="0" height="22.7"/>
</g>
<g id="Layer_1">
	<path class="st2" d="M1238,4.7v347.7H4.6V4.7H1238z M1238.5,4.1H4.1V353h1234.4V4.1z"/>
	<path class="st3" d="M1230.4,12v333H12.2V12H1230.4z M1234.5,8.1H8.1V349h1226.3V8.1z"/>
	<path class="st3" d="M138.3,49h54.6v16.4l-9.5-9.3h-38L138.3,49z M166.8,58.3l7.1,7v142.5l-7.1-7V58.3z M154.9,210.2h21.4V67.7h19
		v-21h-59.4v21h19V210.2z"/>
	<path class="st3" d="M219.1,133.8l7.1,7v67.1l-7.1-7V133.8z M258.5,58.3L249,49h16.6v158.9l-7.1-7V58.3z M219.1,58.3l-9.5-9.3h16.6
		v75.5H249l7.1,7h-37V58.3z M207.2,210.2h21.4v-67.1h18v67.1H268V46.7h-21.4v75.5h-18V46.7h-21.4V210.2z"/>
	<path class="st3" d="M298.9,127l7.1,6.8v57.7h33.7v16.4l-9.5-9.3h-31.3V127z M298.9,58.6l7.1,6.8v49.8h22.6v16.4l-9.7-9.3h-19.9
		V58.6z M289.4,49H338v16.4l-9.7-9.3h-31.1L289.4,49z M342.1,189.2h-33.7v-55.4h22.6v-21h-22.6V67.7h32.1v-21H287v163.5h55.1V189.2z
		"/>
	<path class="st3" d="M393.6,58.3l-9.5-9.3h16.6v142.5h25.2v16.4l-9.5-9.3h-22.8V58.3z M381.7,210.2h46.5v-21h-25.2V46.7h-21.4
		V210.2z"/>
	<path class="st3" d="M493.6,63.2c0-4-3.3-7.2-7.4-7.2h-26.4c-3.3,0-5.5,0.7-6.4,1.6L448,53c2.6-2.6,5.7-4,9.5-4h30.6
		c7.4,0,12.6,5.4,12.6,12.4v134.3c0,4-1.7,6.8-3.6,8.6l-5.5-5.4c0.5-0.5,1.9-1.6,1.9-5.6V63.2z M454.2,64.7c0-3,0.9-4.4,1.4-4.9
		l5.7,5.6v126.2h22.8l5.2,5.1c-1.2,1.2-2.1,1.9-3.8,1.9h-24.2c-3.8,0-7.1-3.3-7.1-7V64.7z M481.7,189.2h-18V67.7h18V189.2z
		 M442.3,196.4c0,7.5,6.6,13.8,14.2,13.8h32.3c7.8,0,14.2-6.3,14.2-13.8V60.7c0-7.5-6.2-14-14.2-14h-32.3c-7.6,0-14.2,6.5-14.2,14
		V196.4z"/>
	<path class="st3" d="M580.5,163.2v32.5c0,4-1.7,6.8-3.6,8.6l-5.5-5.4c0.5-0.5,1.9-1.6,1.9-5.6v-20.8l-9.5-9.3H580.5z M573.4,86.4
		V63.2c0-4-3.3-7.2-7.4-7.2h-26.4c-3.3,0-5.5,0.7-6.4,1.6l-5.5-4.7c2.6-2.6,5.7-4,9.5-4h30.6c7.4,0,12.6,5.4,12.6,12.4v32
		L573.4,86.4z M534,64.7c0-3,0.9-4.4,1.4-4.9l5.7,5.6v126.2h22.8l5.2,5.1c-1.2,1.2-2.1,1.9-3.8,1.9h-24.2c-3.8,0-7.1-3.3-7.1-7V64.7
		z M582.9,95.7v-35c0-7.5-6.2-14-14.2-14h-32.3c-7.6,0-14.2,6.5-14.2,14v135.7c0,7.5,6.6,13.8,14.2,13.8h32.3
		c7.8,0,14.2-6.3,14.2-13.8v-35.5h-21.4v28.3h-18V67.7h18v28H582.9z"/>
	<path class="st3" d="M611.9,207.9l-6.2-6.1l3.3-32l6.2,6.1L611.9,207.9z M620.9,58.3l6.4,7l-10,94.2h24.5l7.4,7h-39.7L620.9,58.3z
		 M612.3,49h33.7l16.9,158.9l-8.3-8.2L639.4,56h-20.7L612.3,49z M629.4,67.7l9.5,89.5h-19L629.4,67.7z M644.6,210.2h20.9L648.4,46.7
		h-38l-17.6,163.5h21.4l3.3-32h23.7L644.6,210.2z"/>
	<path class="st3" d="M690.7,58.3l-9.5-9.3h16.6v142.5H723v16.4l-9.5-9.3h-22.8V58.3z M678.8,210.2h46.5v-21h-25.2V46.7h-21.4V210.2
		z"/>
	<path class="st3" d="M813.7,138.5c0-7.2-4.5-11.9-13.1-11.9c4.7,0,11.2,0,11.2,0c4.5,0.7,9,5.1,9,11.9v57.2c0,4-1.7,6.8-3.6,8.6
		l-5.5-5.4c0.5-0.5,1.9-1.6,1.9-5.6V138.5z M774.3,129.6l7.1,6.8v55.1h22.8l5.2,5.1c-1.2,1.2-2.1,1.9-3.8,1.9h-31.3V129.6z
		 M774.3,58.6l7.1,6.8v52.3h17.8c1.7,0,2.8-0.5,2.8-0.5l3.6,2.3c-2.6,3.5-7.6,5.1-11.4,5.1h-19.9V58.6z M764.8,49h40.8
		c8.1,0,12.6,5.8,12.6,12.4v51.2c0,4.9-2.6,9.3-7.4,10.5l-3.6-2.3c0,0,3.8-3.7,3.8-10V63.2c0-4-3.3-7.2-7.4-7.2h-31.8L764.8,49z
		 M783.8,67.7h15.4v47.7h-15.4V67.7z M783.8,189.2v-52.8h18v52.8H783.8z M762.4,210.2H809c7.8,0,14.2-6.3,14.2-13.8
		c0-4.9,0-52.1,0-57.9s-3.6-12.4-10-13.8c4.3-1.2,7.4-5.6,7.4-11.4V60.7c0-7.5-6.2-14-14.2-14h-43.9V210.2z"/>
	<path class="st3" d="M892.6,142.9c0-7.2-4.5-11.9-13.1-11.9c4.7,0,11.2,0,11.2,0c4.5,0.7,9,5.1,9,11.9v64.9l-7.1-7V142.9z
		 M860.3,207.9l-7.1-7V134l7.1,6.8V207.9z M853.2,58.6l7.1,6.8v56.8h17.8c1.7,0,2.8-0.5,2.8-0.5l3.6,2.3c-2.6,3.5-7.6,5.1-11.4,5.1
		h-19.9V58.6z M843.7,49h40.8c8.1,0,12.6,5.8,12.6,12.4V117c0,4.9-2.6,9.3-7.4,10.5l-3.6-2.3c0,0,3.8-3.7,3.8-10V63.9
		c0-4.4-3.8-7.9-7.8-7.9h-30.6L843.7,49z M862.7,67.7h15.4v52.1h-15.4V67.7z M880.7,210.2h21.4v-67.3c0-5.8-3.6-12.4-10-13.8
		c4.3-1.2,7.4-5.6,7.4-11.4v-57c0-7.5-6.2-14-14.2-14h-43.9v163.5h21.4v-69.4h18V210.2z"/>
	<path class="st3" d="M931.8,127l7.1,6.8v57.7h33.7v16.4l-9.5-9.3h-31.3V127z M931.8,58.6l7.1,6.8v49.8h22.6v16.4l-9.7-9.3h-19.9
		V58.6z M922.3,49h48.7v16.4l-9.7-9.3h-31.1L922.3,49z M975,189.2h-33.7v-55.4h22.6v-21h-22.6V67.7h32.1v-21h-53.4v163.5H975V189.2z
		"/>
	<path class="st3" d="M983.3,46.7l17.8,163.5h32.3l9.3-74.8l9,74.8h32.3l17.8-163.5h-22.1l-11.9,114.2l-14.2-114.2h-22.1
		l-14.2,114.7l-11.9-114.7H983.3z M1082.1,49h17.3l-17.3,157.5l-5.5-11.2l15-136.9L1082.1,49z M1051.2,49l16.6,136.7l7.4,6.8h-14.7
		l-17.1-134.1l-9.5-9.3H1051.2z M1041.5,126.3l-10,79.7l-5.5-10.7l15-134.6L1041.5,126.3z M1003,49l14.2,136.4l7.4,7h-14.7
		L995.2,58.3l-9.5-9.3H1003z"/>
	<path class="st3" d="M251.3,285.3c-7.6,0-12.7,3.7-12.7,9.6c0,12.2,18.8,7.9,18.8,15.6c0,2.6-2.4,4.2-6.5,4.2
		c-3.7,0-8.2-1.8-11.8-5l-2.5,5c3.6,3.2,8.8,5.4,14.2,5.4c7.7,0,13.1-3.8,13.1-9.9c0-12.3-18.8-8.3-18.8-15.8c0-2.3,2.2-3.6,5.7-3.6
		c2.6,0,6.4,0.9,10.2,3.2l2.4-5.1C260.3,286.7,255.8,285.3,251.3,285.3z"/>
	<path class="st3" d="M280.2,290.7h7.8c5.4,0,8.4,2.2,8.4,6.7c0,4.7-3,6.9-8.4,6.9h-7.8V290.7z M274.3,285.5v34.3h5.9v-10.3h8
		c8.8,0,13.8-4.5,13.8-12.2c0-7.4-5-11.7-13.8-11.7H274.3z"/>
	<polygon class="st3" points="336.2,290.7 336.2,285.5 311.3,285.5 311.3,319.8 336.8,319.8 336.8,314.6 317.2,314.6 317.2,305.1 
		334.2,305.1 334.2,300 317.2,300 317.2,290.7 	"/>
	<path class="st3" d="M362.9,285.4c-10.3,0-18.3,7.5-18.3,17.2c0,9.8,7.9,17.4,18.1,17.4c4.9,0,10-2.2,13.5-5.6l-3.5-3.8
		c-2.6,2.5-6.2,4.1-9.7,4.1c-7,0-12.5-5.3-12.5-12.1c0-6.8,5.5-12.1,12.5-12.1c3.5,0,7.2,1.7,9.7,4.4l3.4-4.2
		C372.8,287.4,367.8,285.4,362.9,285.4z"/>
	<rect x="385.7" y="285.5" class="st3" width="5.9" height="34.3"/>
	<path class="st3" d="M424.5,306.9h-13.1l6.6-15.2L424.5,306.9z M426.7,312.1l3.3,7.7h6.3l-15.2-34.3h-6l-15.4,34.3h6.1l3.3-7.7
		H426.7z"/>
	<polygon class="st3" points="450.3,314.6 450.3,285.5 444.4,285.5 444.4,319.8 465.4,319.8 465.4,314.6 	"/>
	<polygon class="st3" points="498.3,290.7 498.3,285.5 470.4,285.5 470.4,290.7 481.4,290.7 481.4,319.8 487.3,319.8 487.3,290.7 	
		"/>
	<polygon class="st3" points="521.1,308.4 533.9,285.5 528,285.5 518.2,302.2 508.2,285.5 502.3,285.5 515.3,308.6 515.3,319.8 
		521.1,319.8 	"/>
	<path class="st3" d="M573.8,285.4c-10.3,0-18.3,7.5-18.3,17.2c0,9.8,7.9,17.4,18.1,17.4c4.9,0,10-2.2,13.5-5.6l-3.5-3.8
		c-2.6,2.5-6.2,4.1-9.7,4.1c-7,0-12.5-5.3-12.5-12.1c0-6.8,5.5-12.1,12.5-12.1c3.5,0,7.2,1.7,9.7,4.4l3.4-4.2
		C583.7,287.4,578.8,285.4,573.8,285.4z"/>
	<path class="st3" d="M611.5,290.5c6.8,0,12.4,5.3,12.4,12.1c0,6.8-5.6,12.2-12.4,12.2c-6.8,0-12.6-5.4-12.6-12.2
		C598.9,295.8,604.6,290.5,611.5,290.5z M611.4,285.4c-10.4,0-18.5,7.4-18.5,17.3c0,9.8,8.1,17.4,18.5,17.4s18.5-7.6,18.5-17.4
		C629.9,292.8,621.8,285.4,611.4,285.4z"/>
	<polygon class="st3" points="663,290.7 663.1,285.5 639.7,285.5 639.7,319.8 645.5,319.8 645.5,305.7 661.4,305.7 661.4,300.6 
		645.5,300.6 645.5,290.7 	"/>
	<polygon class="st3" points="695.1,290.7 695.2,285.5 671.8,285.5 671.8,319.8 677.7,319.8 677.7,305.7 693.5,305.7 693.5,300.6 
		677.7,300.6 677.7,290.7 	"/>
	<polygon class="st3" points="728.8,290.7 728.8,285.5 703.9,285.5 703.9,319.8 729.4,319.8 729.4,314.6 709.8,314.6 709.8,305.1 
		726.8,305.1 726.8,300 709.8,300 709.8,290.7 	"/>
	<polygon class="st3" points="765,290.7 765,285.5 740.1,285.5 740.1,319.8 765.6,319.8 765.6,314.6 745.9,314.6 745.9,305.1 
		763,305.1 763,300 745.9,300 745.9,290.7 	"/>
	<path class="st3" d="M802,315.8c-3.6,0-6.4-2.4-6.4-5.8c0-2.8,2.2-4.6,5.1-6.2c2.2,2.4,5,5.2,8.5,8.7
		C807,314.6,804.5,315.8,802,315.8z M799.5,292.9c0-2.4,1.8-4.2,4.6-4.2c2.6,0,4.2,1.5,4.2,3.7c0,3-2.8,4.8-6.2,6.5
		C800.4,296.7,799.5,294.8,799.5,292.9z M817.7,320.7l2.9-2.9l-5.7-5.4c1.4-1.9,2.6-4.1,3.6-6.5l-3.7-2.7c-0.9,2.4-1.9,4.4-3.1,6.2
		c-3-2.9-5.4-5.3-7.3-7.4c4.3-2.2,8.5-4.7,8.5-9.4c0-4.2-3.6-7.2-8.8-7.2c-5.4,0-9.1,3.2-9.1,7.7c0,2.4,1,4.9,3.3,7.9
		c-3.9,2.1-7.5,4.7-7.5,9.5c0,5.5,4.7,9.6,11,9.6c3.8,0,7.4-1.7,10.5-4.6L817.7,320.7z"/>
	<polygon class="st3" points="868.8,290.7 868.8,285.5 845.4,285.5 845.4,319.8 851.3,319.8 851.3,305.7 867.1,305.7 867.1,300.6 
		851.3,300.6 851.3,290.7 	"/>
	<path class="st3" d="M893.2,290.5c6.8,0,12.4,5.3,12.4,12.1c0,6.8-5.6,12.2-12.4,12.2c-6.8,0-12.6-5.4-12.6-12.2
		C880.6,295.8,886.3,290.5,893.2,290.5z M893.1,285.4c-10.4,0-18.5,7.4-18.5,17.3c0,9.8,8.1,17.4,18.5,17.4
		c10.4,0,18.5-7.6,18.5-17.4C911.6,292.8,903.5,285.4,893.1,285.4z"/>
	<path class="st3" d="M935.6,290.5c6.8,0,12.4,5.3,12.4,12.1c0,6.8-5.6,12.2-12.4,12.2c-6.8,0-12.6-5.4-12.6-12.2
		C923,295.8,928.7,290.5,935.6,290.5z M935.5,285.4c-10.4,0-18.5,7.4-18.5,17.3c0,9.8,8.1,17.4,18.5,17.4c10.4,0,18.5-7.6,18.5-17.4
		C954,292.8,945.9,285.4,935.5,285.4z"/>
	<path class="st3" d="M969.7,290.7h8.3c6.9,0,12.2,5,12.2,12c0,7-5.2,11.9-12,11.9h-8.6V290.7z M963.8,285.5v34.3h14.1
		c10.6,0,18.2-7.3,18.2-17.1c0-9.9-7.6-17.1-18-17.1H963.8z"/>
</g>
</svg>
